<?xml version="1.0" standalone="no"?>
<!DOCTYPE svg PUBLIC "-//W3C//DTD SVG 20010904//EN"
 "http://www.w3.org/TR/2001/REC-SVG-20010904/DTD/svg10.dtd">
<svg version="1.0" xmlns="http://www.w3.org/2000/svg"
 width="200.000000pt" height="204.000000pt" viewBox="0 0 200.000000 204.000000"
 preserveAspectRatio="xMidYMid meet">

<g transform="translate(0.000000,204.000000) scale(0.100000,-0.100000)"
fill="#000000" stroke="none">
<path d="M890 1926 c-117 -47 -167 -72 -255 -124 -196 -117 -389 -299 -529
-500 l-36 -52 10 -113 c33 -353 129 -646 298 -909 35 -54 40 -57 107 -77 114
-34 242 -59 369 -72 183 -18 404 6 643 71 l82 22 39 66 c163 275 236 489 287
842 l23 165 -83 110 c-99 132 -266 295 -390 384 -89 63 -299 171 -405 209
l-56 20 -104 -42z m205 -31 c276 -108 534 -306 724 -558 l75 -98 -23 -162
c-46 -331 -116 -540 -267 -799 -52 -88 -47 -86 -274 -135 -115 -25 -143 -27
-345 -27 -232 0 -315 11 -489 64 l-66 21 -55 94 c-159 270 -265 630 -265 900
0 58 2 62 67 150 130 174 313 336 508 449 74 42 286 136 310 136 6 0 51 -16
100 -35z"/>
<path d="M1081 1876 c225 -89 406 -209 577 -385 82 -84 208 -246 215 -276 4
-18 5 -18 6 -1 2 41 -188 272 -317 382 -90 78 -229 172 -324 220 -79 40 -213
94 -231 94 -6 -1 26 -16 74 -34z"/>
<path d="M886 1875 c-245 -102 -455 -251 -614 -436 -113 -131 -152 -194 -151
-243 l2 -41 6 46 c13 92 212 324 396 462 81 60 294 177 400 219 22 9 36 16 30
17 -5 0 -37 -11 -69 -24z"/>
<path d="M945 1680 c0 -54 2 -60 21 -60 18 0 20 5 16 26 -4 20 -1 25 9 22 8
-3 15 -14 17 -26 2 -16 10 -22 28 -22 14 0 24 3 22 8 -2 4 -10 19 -17 34 -11
22 -12 30 -2 42 20 24 4 36 -47 36 l-47 0 0 -60z m65 36 c0 -16 -18 -31 -27
-22 -8 8 5 36 17 36 5 0 10 -6 10 -14z"/>
<path d="M785 1716 c-22 -7 -39 -16 -38 -20 18 -76 29 -106 38 -106 29 0 75
23 75 38 0 13 -3 13 -19 -2 -24 -22 -41 -13 -41 21 0 19 4 24 16 19 10 -4 14
-1 11 6 -2 7 -12 12 -22 10 -11 -2 -15 2 -12 10 2 7 14 12 25 11 15 -2 20 2
16 12 -4 8 -7 15 -8 14 0 -1 -19 -7 -41 -13z"/>
<path d="M1152 1708 c-19 -19 -14 -46 13 -64 14 -9 25 -20 25 -25 0 -18 -39
-8 -54 13 l-16 22 0 -21 c0 -25 27 -43 62 -43 50 0 64 47 23 74 -25 16 -33 36
-16 36 5 0 16 -7 24 -15 13 -12 16 -12 20 -1 4 10 -5 18 -25 25 -39 14 -41 14
-56 -1z"/>
<path d="M643 1663 c-9 -3 -9 -12 -2 -29 18 -50 10 -61 -20 -28 -25 27 -30 29
-46 18 -10 -8 -17 -15 -14 -16 2 -2 23 -20 46 -42 56 -52 72 -42 58 40 -7 40
-14 59 -22 57z"/>
<path d="M1309 1603 c-23 -47 -24 -55 -10 -62 12 -7 21 1 43 40 33 57 33 56
11 67 -15 8 -22 0 -44 -45z"/>
<path d="M1436 1571 c-3 -5 4 -11 16 -15 22 -5 21 -7 -15 -44 -37 -38 -37 -38
-17 -57 14 -13 20 -14 20 -5 0 15 49 70 62 70 4 0 8 -8 8 -17 0 -14 2 -15 13
-4 10 10 5 19 -25 47 -39 35 -53 41 -62 25z"/>
<path d="M468 1544 c-12 -12 -8 -21 26 -59 35 -39 42 -43 55 -30 13 12 9 20
-26 58 -35 38 -43 43 -55 31z"/>
<path d="M915 1520 c-215 -29 -384 -176 -461 -400 -29 -85 -25 -244 8 -332 37
-99 85 -173 151 -233 111 -101 230 -146 382 -147 310 0 555 245 555 557 0 341
-295 599 -635 555z m227 -160 c63 -29 111 -43 161 -48 l72 -8 -35 -18 c-48
-26 -120 -23 -212 9 -46 16 -92 25 -115 23 -33 -3 -38 -6 -38 -28 0 -41 34
-50 180 -49 101 1 138 -2 167 -15 21 -9 54 -16 75 -17 l38 0 -40 -15 c-39 -15
-102 -14 -167 2 -24 5 -28 3 -28 -14 0 -26 18 -32 93 -32 45 0 76 -7 112 -24
l50 -24 -97 -1 c-76 -1 -98 -4 -98 -15 0 -19 29 -25 102 -19 47 4 73 1 103
-12 l40 -18 -70 -12 c-105 -20 -179 -18 -224 4 l-38 20 0 -27 c0 -15 -3 -35
-8 -46 -8 -17 -4 -18 53 -11 58 6 62 6 62 -13 0 -12 -18 -36 -41 -56 -41 -34
-162 -99 -186 -99 -12 0 -17 -17 -14 -44 1 -7 -2 -13 -6 -13 -10 0 -8 -183 2
-223 5 -17 2 -33 -5 -42 -18 -22 -67 -19 -80 4 -12 23 -14 54 -2 48 9 -6 12
204 4 218 -7 11 -9 17 -11 40 0 8 -8 15 -17 15 -23 0 -132 57 -176 92 -25 20
-35 34 -31 45 4 11 3 14 -5 9 -7 -4 -12 -1 -12 10 0 14 8 15 50 11 28 -3 50
-4 50 -1 0 9 -59 32 -99 38 -63 10 -101 33 -117 71 -12 31 -12 39 3 77 9 24
17 62 17 86 1 48 7 51 41 17 28 -27 30 -50 13 -125 -10 -44 -9 -53 4 -67 31
-31 47 -9 50 68 3 76 7 82 60 93 20 5 35 22 60 68 46 83 83 108 161 108 48 0
77 -8 149 -40z"/>
<path d="M1010 1190 c0 -13 27 -26 70 -33 27 -5 31 -4 18 4 -10 5 -18 14 -18
19 0 5 8 11 18 13 9 3 -7 5 -35 6 -29 0 -53 -3 -53 -9z"/>
<path d="M816 1165 c-30 -28 -35 -75 -10 -96 9 -7 20 -23 25 -36 10 -28 35
-30 49 -4 13 26 14 23 -15 57 -27 31 -31 54 -15 85 15 26 -2 24 -34 -6z"/>
<path d="M942 1121 c-24 -15 -9 -45 25 -52 18 -3 55 -21 83 -39 36 -23 54 -30
62 -22 14 14 1 32 -23 32 -25 0 -16 18 15 30 19 7 15 11 -34 34 -56 26 -104
33 -128 17z"/>
<path d="M591 1097 c-4 -37 45 -69 131 -86 31 -7 74 -25 95 -40 35 -25 41 -27
58 -15 40 29 93 36 150 20 95 -28 135 -18 135 34 0 31 -17 50 -44 50 -19 0
-19 -1 -2 -13 21 -16 18 -50 -5 -55 -9 -2 -38 11 -65 27 -26 17 -62 34 -80 37
-18 3 -38 12 -45 20 -18 22 -30 16 -23 -11 4 -18 1 -32 -11 -45 -18 -20 -55
-27 -55 -11 0 4 -12 23 -27 42 -32 39 -77 43 -86 8 -7 -26 -53 -25 -69 1 -7
11 -20 20 -30 20 -9 0 -19 6 -21 13 -3 6 -6 8 -6 4z"/>
<path d="M1153 1077 c84 -57 153 -68 257 -42 62 15 46 19 -71 15 -50 -1 -70 2
-83 15 -10 11 -35 18 -66 19 -27 1 -43 -2 -37 -7z"/>
<path d="M935 970 c-14 -6 -5 -9 35 -9 40 0 49 3 35 9 -11 5 -27 9 -35 9 -8 0
-24 -4 -35 -9z"/>
<path d="M370 1444 c0 -4 8 -13 18 -21 15 -13 15 -14 -10 -10 -21 3 -31 -2
-43 -19 -18 -28 -19 -34 -4 -34 6 0 28 -14 49 -30 21 -17 41 -26 44 -21 4 5
-10 19 -30 32 -43 26 -31 40 31 38 22 0 44 0 49 0 8 1 -89 71 -99 71 -3 0 -5
-3 -5 -6z"/>
<path d="M1548 1401 c-43 -12 -55 -19 -49 -30 6 -9 11 -10 15 -2 4 6 13 11 21
11 19 0 26 -27 10 -43 -12 -12 -12 -17 0 -33 7 -11 15 -17 17 -14 2 3 20 25
40 50 30 39 34 48 23 63 -7 9 -14 16 -16 16 -2 -1 -30 -9 -61 -18z m37 -21
c-3 -5 -10 -10 -16 -10 -5 0 -9 5 -9 10 0 6 7 10 16 10 8 0 12 -4 9 -10z"/>
<path d="M267 1266 c-3 -8 12 -17 39 -24 45 -12 65 -35 46 -54 -7 -7 -24 -4
-55 10 -39 17 -46 18 -51 5 -10 -25 -7 -28 40 -42 58 -17 79 -7 79 39 0 33 -3
36 -62 63 -24 11 -33 12 -36 3z"/>
<path d="M1646 1244 c-3 -9 -6 -27 -6 -40 0 -13 -5 -24 -10 -24 -18 0 -24 32
-11 53 11 17 11 19 -4 13 -9 -3 -19 -6 -21 -6 -14 0 0 -53 20 -77 20 -23 28
-26 43 -17 11 7 19 26 21 48 2 23 8 36 15 33 7 -2 11 -14 10 -26 -2 -11 1 -21
7 -21 17 0 18 15 5 48 -10 24 -20 32 -38 32 -14 0 -28 -7 -31 -16z"/>
<path d="M1863 1155 c0 -22 2 -30 4 -17 2 12 2 30 0 40 -3 9 -5 -1 -4 -23z"/>
<path d="M133 1085 c0 -27 2 -38 4 -22 2 15 2 37 0 50 -2 12 -4 0 -4 -28z"/>
<path d="M1852 1080 c0 -19 2 -27 5 -17 2 9 2 25 0 35 -3 9 -5 1 -5 -18z"/>
<path d="M142 1000 c0 -19 2 -27 5 -17 2 9 2 25 0 35 -3 9 -5 1 -5 -18z"/>
<path d="M1842 1005 c0 -16 2 -22 5 -12 2 9 2 23 0 30 -3 6 -5 -1 -5 -18z"/>
<path d="M225 995 c-14 -13 -25 -36 -25 -50 0 -33 42 -75 75 -75 33 0 75 42
75 75 0 33 -42 75 -75 75 -14 0 -37 -11 -50 -25z"/>
<path d="M1665 995 c-14 -13 -25 -36 -25 -50 0 -33 42 -75 75 -75 33 0 75 42
75 75 0 33 -42 75 -75 75 -14 0 -37 -11 -50 -25z"/>
<path d="M1832 945 c0 -16 2 -22 5 -12 2 9 2 23 0 30 -3 6 -5 -1 -5 -18z"/>
<path d="M152 935 c0 -16 2 -22 5 -12 2 9 2 23 0 30 -3 6 -5 -1 -5 -18z"/>
<path d="M1816 869 c-4 -23 -5 -44 -2 -46 2 -2 7 14 11 37 4 23 5 43 2 46 -2
3 -7 -14 -11 -37z"/>
<path d="M162 885 c0 -11 4 -31 8 -45 6 -20 8 -21 8 -5 0 11 -4 31 -8 45 -6
20 -8 21 -8 5z"/>
<path d="M181 794 c0 -11 3 -14 6 -6 3 7 2 16 -1 19 -3 4 -6 -2 -5 -13z"/>
<path d="M1801 794 c0 -11 3 -14 6 -6 3 7 2 16 -1 19 -3 4 -6 -2 -5 -13z"/>
<path d="M191 760 c0 -8 4 -24 9 -35 5 -13 9 -14 9 -5 0 8 -4 24 -9 35 -5 13
-9 14 -9 5z"/>
<path d="M1786 744 c-4 -14 -5 -28 -3 -31 3 -2 8 8 11 23 4 14 5 28 3 31 -3 2
-8 -8 -11 -23z"/>
<path d="M300 690 c-24 -24 -26 -60 -5 -99 14 -29 14 -29 48 -12 28 13 32 19
23 33 -7 12 -15 14 -27 7 -27 -14 -39 -11 -39 10 0 20 14 34 42 44 21 7 51
-20 44 -39 -5 -14 6 -19 17 -8 10 10 -14 64 -33 74 -28 15 -48 12 -70 -10z"/>
<path d="M1606 695 c-4 -12 7 -32 38 -65 26 -28 47 -43 49 -36 3 7 -4 18 -15
25 -16 10 -17 15 -7 27 7 9 20 13 30 11 11 -3 21 4 28 19 10 22 8 24 -17 24
-15 0 -43 3 -63 6 -29 5 -37 3 -43 -11z m54 -35 c0 -5 -4 -10 -9 -10 -6 0 -13
5 -16 10 -3 6 1 10 9 10 9 0 16 -4 16 -10z"/>
<path d="M211 690 c0 -8 4 -22 9 -30 12 -18 12 -2 0 25 -6 13 -9 15 -9 5z"/>
<path d="M1747 623 c-9 -25 -16 -48 -14 -50 2 -2 12 17 22 42 9 26 15 48 13
50 -2 2 -12 -17 -21 -42z"/>
<path d="M235 620 c29 -99 192 -410 215 -410 6 0 -5 21 -24 48 -47 66 -119
202 -157 297 -32 81 -47 111 -34 65z"/>
<path d="M1523 558 c-13 -14 -14 -21 -5 -30 18 -18 14 -30 -7 -19 -14 8 -23 6
-37 -10 -17 -19 -17 -20 7 -36 13 -10 34 -27 46 -40 13 -12 25 -18 29 -12 3 6
4 11 3 13 -2 1 -17 13 -34 26 l-30 23 33 -6 c36 -7 36 -8 21 29 l-10 28 23
-19 c13 -11 28 -25 34 -32 8 -9 13 -7 21 6 9 15 4 24 -33 58 -42 38 -45 39
-61 21z"/>
<path d="M1707 525 c-24 -50 -20 -58 4 -12 11 22 19 41 17 43 -3 2 -12 -12
-21 -31z"/>
<path d="M425 510 c-35 -36 -37 -42 -27 -64 6 -14 23 -28 38 -32 21 -5 33 0
62 29 20 20 33 39 30 42 -3 3 -21 -10 -41 -30 -34 -34 -67 -39 -67 -11 0 14
34 48 63 63 17 9 17 10 -1 26 -17 16 -20 15 -57 -23z"/>
<path d="M1625 358 c-33 -60 -68 -118 -78 -129 -10 -10 -13 -19 -8 -19 14 0
158 246 149 255 -2 1 -30 -47 -63 -107z"/>
<path d="M590 410 c0 -6 -11 -28 -25 -50 -27 -42 -29 -50 -17 -50 4 0 16 16
26 35 31 56 37 49 40 -52 1 -24 16 -44 16 -21 0 8 13 33 29 55 28 38 30 53 9
53 -4 0 -8 -7 -8 -16 0 -8 -5 -12 -11 -9 -6 4 -8 13 -5 21 3 7 -5 20 -17 29
-25 18 -37 19 -37 5z"/>
<path d="M1350 399 c-19 -12 -36 -23 -38 -24 -2 -2 11 -26 30 -53 27 -41 37
-48 51 -41 16 9 16 12 1 34 -19 29 -2 35 26 10 14 -13 19 -13 35 -1 18 13 17
14 -12 30 -18 9 -33 25 -35 38 -4 30 -17 31 -58 7z m30 -25 c0 -9 -5 -14 -12
-12 -18 6 -21 28 -4 28 9 0 16 -7 16 -16z"/>
<path d="M758 274 c-30 -41 -34 -53 -23 -58 9 -3 15 0 15 9 0 7 5 17 10 20 15
9 40 -13 34 -30 -5 -11 33 -34 40 -23 1 1 0 31 -2 65 -5 83 -24 88 -74 17z
m29 -6 c-3 -8 -6 -5 -6 6 -1 11 2 17 5 13 3 -3 4 -12 1 -19z"/>
<path d="M1177 323 c-10 -3 -17 -10 -14 -16 2 -7 1 -36 -3 -64 -5 -41 -3 -53
7 -53 7 0 13 11 13 23 0 13 3 27 6 30 11 10 45 -13 38 -25 -5 -8 -1 -9 10 -5
10 4 24 7 31 7 9 0 1 20 -23 55 -20 30 -39 54 -42 53 -3 0 -13 -2 -23 -5z m17
-48 c3 -8 1 -15 -4 -15 -6 0 -10 7 -10 15 0 8 2 15 4 15 2 0 6 -7 10 -15z"/>
<path d="M940 235 l0 -65 38 0 c49 0 82 23 82 58 0 15 -4 32 -8 39 -10 15 -57
33 -88 33 -23 0 -24 -3 -24 -65z m80 19 c12 -29 -2 -64 -25 -64 -11 0 -15 12
-15 45 0 52 24 63 40 19z"/>
<path d="M480 200 c8 -5 22 -9 30 -9 10 0 8 3 -5 9 -27 12 -43 12 -25 0z"/>
<path d="M1400 179 c-36 -10 -49 -16 -29 -14 41 6 131 33 109 33 -8 0 -44 -8
-80 -19z"/>
<path d="M570 174 c25 -8 63 -17 85 -19 22 -3 6 4 -35 14 -86 23 -116 26 -50
5z"/>
<path d="M1298 153 c6 -2 18 -2 25 0 6 3 1 5 -13 5 -14 0 -19 -2 -12 -5z"/>
<path d="M713 143 c9 -2 23 -2 30 0 6 3 -1 5 -18 5 -16 0 -22 -2 -12 -5z"/>
<path d="M1233 143 c9 -2 25 -2 35 0 9 3 1 5 -18 5 -19 0 -27 -2 -17 -5z"/>
<path d="M778 133 c12 -2 30 -2 40 0 9 3 -1 5 -23 4 -22 0 -30 -2 -17 -4z"/>
<path d="M1158 133 c12 -2 30 -2 40 0 9 3 -1 5 -23 4 -22 0 -30 -2 -17 -4z"/>
<path d="M912 123 c37 -2 100 -2 140 0 40 1 10 3 -67 3 -77 0 -110 -1 -73 -3z"/>
</g>
</svg>
